<svg width="19" height="18" viewBox="0 0 19 18" fill="none" xmlns="http://www.w3.org/2000/svg">
<path fill-rule="evenodd" clip-rule="evenodd" d="M14.7425 14.9999H12.5V9.74994C12.5 9.33519 12.164 8.99994 11.75 8.99994H7.25C6.83525 8.99994 6.5 9.33519 6.5 9.74994V14.9999H4.25L4.2545 8.68719L9.4985 3.32394L14.75 8.71794L14.7425 14.9999ZM8 14.9999H11V10.4999H8V14.9999ZM15.818 7.63872L10.0363 1.72572C9.7535 1.43697 9.2465 1.43697 8.96375 1.72572L3.18125 7.63947C2.9075 7.92072 2.75 8.31372 2.75 8.71797V15C2.75 15.8272 3.38525 16.5 4.166 16.5H7.25H11.75H14.8333C15.614 16.5 16.25 15.8272 16.25 15V8.71797C16.25 8.31372 16.0925 7.92072 15.818 7.63872Z" fill="white"/>
<mask id="mask0_121_998" style="mask-type:luminance" maskUnits="userSpaceOnUse" x="2" y="1" width="15" height="16">
<path fill-rule="evenodd" clip-rule="evenodd" d="M14.7425 14.9999H12.5V9.74994C12.5 9.33519 12.164 8.99994 11.75 8.99994H7.25C6.83525 8.99994 6.5 9.33519 6.5 9.74994V14.9999H4.25L4.2545 8.68719L9.4985 3.32394L14.75 8.71794L14.7425 14.9999ZM8 14.9999H11V10.4999H8V14.9999ZM15.818 7.63872L10.0363 1.72572C9.7535 1.43697 9.2465 1.43697 8.96375 1.72572L3.18125 7.63947C2.9075 7.92072 2.75 8.31372 2.75 8.71797V15C2.75 15.8272 3.38525 16.5 4.166 16.5H7.25H11.75H14.8333C15.614 16.5 16.25 15.8272 16.25 15V8.71797C16.25 8.31372 16.0925 7.92072 15.818 7.63872Z" fill="white"/>
</mask>
<g mask="url(#mask0_121_998)">
<rect x="0.5" width="18" height="18" fill="white"/>
</g>
</svg>
