<svg width="216" height="108" viewBox="0 0 216 108" fill="none" xmlns="http://www.w3.org/2000/svg">
<mask id="mask0_2_3286" style="mask-type:alpha" maskUnits="userSpaceOnUse" x="1" y="-9" width="217" height="117">
<path d="M217.08 108C144.657 108 168.727 108 109.08 108C49.4333 108 32.8448 108 1.08008 108C1.08008 43.5813 49.4333 -8.6402 109.08 -8.6402C168.727 -8.6402 217.08 43.5813 217.08 108Z" fill="#D9D9D9"/>
</mask>
<g mask="url(#mask0_2_3286)">
<path d="M136.69 97.991C136.69 97.991 139.484 100.947 153.928 124.853C160.26 135.33 175.032 123.569 172.518 113.464C170.004 103.359 161.758 83.9765 150.011 74.8796" fill="#DAEDE4"/>
<path d="M83.8081 93.4013C83.8081 93.4013 81.0149 96.357 66.5703 120.263C60.2387 130.741 45.4662 118.979 47.9801 108.874C50.4947 98.7698 58.74 79.3868 70.4878 70.2899" fill="#DAEDE4"/>
<path d="M95.3002 28.8658C95.3002 28.8658 96.4027 25.6266 94.2821 24.5188C92.1615 23.4103 88.5979 23.2399 88.9377 19.4896C89.2768 15.7386 93.264 15.0571 93.4336 13.1816C93.6032 11.306 89.8706 7.72608 93.0945 6.53276C96.3183 5.33945 99.4345 9.56625 100.391 5.59536C101.233 2.09317 101.578 -1.39489 105.82 0.56546C110.061 2.52652 107.602 5.50982 113.88 3.37838C120.157 1.24766 121.6 1.50287 124.739 4.48687C127.878 7.47017 124.144 13.9486 125.248 15.6537C126.351 17.3582 128.998 17.7908 128.641 20.5126C128.217 23.7518 123.551 23.9221 123.551 29.548C123.551 35.1738 109.637 36.1968 109.637 36.1968" fill="black"/>
<path d="M95.7523 23.794C92.8444 23.6144 88.7678 23.1754 87.9559 19.6994C87.1545 16.2679 91.2276 15.2202 93.707 14.8158C96.1709 14.415 98.1748 13.7639 99.8598 11.8311C101.655 9.77108 103.023 7.24023 104.302 4.83733C104.588 4.29935 104.866 3.75712 105.136 3.21136C105.622 2.23083 105.726 2.21316 106.694 2.53128C107.958 2.94626 109.236 3.19864 110.568 3.07351C113.137 2.83244 115.413 1.46592 117.932 1.03115C120.406 0.604158 123.681 1.16901 124.293 4.06606C124.791 6.42654 123.464 8.77146 123.813 11.1482C124.195 13.7434 126.672 14.7402 127.988 16.7479C130.154 20.0493 127.115 24.134 123.381 23.3331C123.073 23.2666 122.94 23.7438 123.251 23.8103C125.893 24.3772 128.602 22.8135 129.115 20.0691C129.357 18.774 129.068 17.4308 128.313 16.3562C127.399 15.0569 125.978 14.2276 125.058 12.9375C122.947 9.98104 125.783 6.42937 124.573 3.27004C123.623 0.793619 120.714 0.191303 118.358 0.470547C116.414 0.70101 114.616 1.56631 112.753 2.1156C110.188 2.87344 108.045 2.51573 105.584 1.61226C105.49 1.57762 105.35 1.63347 105.306 1.72608C103.727 5.06567 101.953 8.68168 99.5116 11.4812C98.1269 13.0683 96.4629 13.8374 94.4169 14.2015C92.9218 14.4673 91.4042 14.6179 90.0202 15.2916C87.7673 16.3874 86.6479 18.7514 87.9826 21.0489C89.5748 23.7919 92.9091 24.1128 95.7523 24.2889C96.0689 24.3086 96.0675 23.8131 95.7523 23.794Z" fill="black"/>
<path d="M98.7492 57.9063C97.1295 60.8649 99.9671 63.3667 100.694 64.254C101.727 65.5166 102.639 66.835 103.842 67.9718C104.935 69.0039 106.128 69.9399 107.441 70.7288C107.628 70.8405 110.845 69.3581 111.381 69.6394C111.395 69.6196 112.769 69.3475 112.794 69.3432C120.52 68.2135 117.404 65.3186 119.755 59.9784C118.648 58.1707 115.853 46.1951 118.836 35.2219L99.9896 39.8453C99.9896 39.8453 102.556 50.8199 98.7492 57.9063Z" fill="#F1A58D"/>
<g opacity="0.5">
<path d="M100.975 40.1966L100.576 41.1559L100.85 48.8333C100.85 48.8333 102.82 51.5918 109.57 50.87C115.803 50.2041 117.096 40.2016 117.096 40.2016C117.096 40.2016 113.183 47.1423 109.211 45.9596C105.24 44.7776 102.741 42.1916 102.741 42.1916" fill="#953F1E"/>
</g>
<path d="M121.497 18.2666L110.787 14.8875C110.777 14.8804 110.773 14.8648 110.762 14.8592C110.633 14.7998 108.553 15.5131 108.553 15.5131L107.32 15.8955L105.657 15.3837C105.657 15.3837 105.235 16.4434 105.225 16.6605L97.2412 15.2932C97.2412 15.2932 95.9332 35.34 100.053 41.9782C103.678 47.8168 106.622 48.4545 108.394 48.5167C108.399 48.5174 108.404 48.5217 108.41 48.5217C108.5 48.5217 108.596 48.5224 108.697 48.5231H108.706H108.801H108.895H108.905C109.006 48.5224 109.102 48.5217 109.192 48.5217C109.198 48.5217 109.202 48.5174 109.208 48.5167C110.979 48.4545 113.925 47.8161 117.549 41.9782C121.669 35.34 121.497 18.2666 121.497 18.2666Z" fill="#F1A58D"/>
<path d="M104.697 39.6227C104.697 39.6227 106.752 40.2391 108.806 40.2391C110.861 40.2391 113.2 39.9592 113.2 39.9592C113.2 39.9592 112.857 43.3193 109.605 43.5999C106.549 43.8629 104.983 41.6396 104.697 39.6227Z" fill="#1E130F"/>
<path d="M112.403 40.2939C112.403 40.2939 112.175 40.9662 111.49 41.2461C110.805 41.5261 107.609 41.8626 105.27 40.8538L104.87 39.9015C104.87 39.9015 107.416 40.8502 112.403 40.2939Z" fill="white"/>
<path d="M104.186 29.5583C104.186 30.0955 103.934 30.531 103.624 30.531C103.314 30.531 103.062 30.0955 103.062 29.5583C103.062 29.021 103.314 28.5862 103.624 28.5862C103.934 28.5862 104.186 29.021 104.186 29.5583Z" fill="#1E130F"/>
<path d="M114.545 28.9803C114.545 29.5176 114.294 29.9524 113.983 29.9524C113.673 29.9524 113.421 29.5176 113.421 28.9803C113.421 28.4431 113.673 28.0083 113.983 28.0083C114.294 28.0083 114.545 28.4431 114.545 28.9803Z" fill="#1E130F"/>
<path d="M117.419 25.6405C117.315 25.3959 116.507 24.5928 114.748 24.6161C113.422 24.6345 112.425 25.2411 112.042 25.8094C111.728 26.2767 111.954 26.4931 112.474 26.2746C113.447 25.8681 115.018 25.3612 116.812 26.0993C117.206 26.2619 117.663 26.2117 117.419 25.6405Z" fill="#1E130F"/>
<path d="M104.749 24.546C104.645 24.2816 103.839 23.4142 102.085 23.4396C100.763 23.4587 99.7677 24.1148 99.3856 24.7291C99.0725 25.2339 99.297 25.4665 99.8169 25.231C100.786 24.792 102.355 24.2449 104.144 25.0416C104.538 25.2176 104.992 25.1632 104.749 24.546Z" fill="#1E130F"/>
<path d="M106.692 42.9246C106.692 42.9246 107.434 42.2523 109.146 42.3082C110.858 42.3647 111.2 43.0929 111.2 43.0929C111.2 43.0929 109.488 44.4933 106.692 42.9246Z" fill="#E12D30"/>
<path d="M120.193 31.2301C120.193 31.2301 121.818 26.9001 124.744 28.4886C128.023 30.2693 124.597 36.7612 119.23 36.6226" fill="#F1A58D"/>
<path d="M98.4146 30.5616C98.4146 30.5616 96.7893 26.2315 93.8638 27.8207C90.5851 29.6015 94.0109 36.0927 99.3778 35.9541" fill="#F1A58D"/>
<path d="M107.323 26.041C107.545 28.849 107.736 31.7595 107.388 34.5618C107.349 34.8778 107.842 34.8743 107.88 34.5618C108.228 31.7595 108.037 28.849 107.816 26.041C107.791 25.7257 107.298 25.7229 107.323 26.041Z" fill="#1E130F"/>
<path d="M110.225 36.1449C109.367 36.3542 108.423 36.3881 107.572 36.1449C107.267 36.0573 107.136 36.5352 107.441 36.6221C108.378 36.89 109.413 36.8526 110.356 36.6221C110.664 36.5472 110.533 36.07 110.225 36.1449Z" fill="#1E130F"/>
<path d="M70.0547 70.3644L95.5273 60.0826L109.608 89.8208L123.821 59.9518L151.398 76.2405C151.398 76.2405 146.394 87.1769 145.546 91.0742C143.925 98.5226 144.209 108.746 144.209 108.746L139.992 154.081L78.1002 153.681L76.3609 107.844L70.0547 70.3644Z" fill="#007336"/>
<path d="M150.084 76.3517C150.084 76.3517 145.808 83.5753 144.448 91.9236C143.297 99.0022 143.424 110.455 143.424 110.455L142.771 110.737C142.771 110.737 141.375 101.833 143.297 89.4782C144.256 83.3109 148.676 75.0651 148.676 75.0651L150.597 76.0944" fill="#FAC605"/>
<path d="M99.9555 53.2697L95.3921 59.5587L104.128 72.3967L107.126 62.0471L99.9555 53.2697Z" fill="#DAEDE4"/>
<path d="M119.12 54.3174L111.296 62.4395L114.947 72.2653L123.422 59.8195L119.12 54.3174Z" fill="#DAEDE4"/>
<path d="M105.041 65.0599L109.083 71.6104L113.777 64.2737L122.512 59.4269L124.468 60.6061L110.126 92.309L95.0015 61.523L97.0876 58.9031L105.041 65.0599Z" fill="#DAEDE4"/>
<path d="M96.7842 22.494C96.7842 22.494 96.177 16.0856 100.429 16.0856C104.681 16.0856 107.111 21.7305 113.641 20.815C120.171 19.9002 122.6 18.5267 123.208 16.2376C123.815 13.9492 123.056 10.8973 123.056 10.8973L119.108 7.99887C119.108 7.99887 113.945 7.08338 113.337 6.77798C112.73 6.47258 109.085 6.16718 108.326 6.01448C107.567 5.86249 104.377 7.08338 103.618 7.23608C102.859 7.38807 99.5176 9.37175 99.5176 9.37175C99.5176 9.37175 99.0624 9.52445 98.6065 9.98184C98.1513 10.4399 96.6322 11.8128 96.6322 11.8128C96.6322 11.8128 95.7211 12.881 95.5691 13.3391C95.4178 13.7965 94.9619 15.7802 94.9619 15.7802L96.7842 22.494Z" fill="black"/>
<path d="M99.0731 54.0103C97.7764 55.818 96.479 57.6256 95.1823 59.4326C95.1352 59.499 95.1366 59.6164 95.1823 59.6821C97.9875 63.7343 100.792 67.7858 103.597 71.8373C103.722 72.0176 103.974 71.9836 104.047 71.7779C105.168 68.6695 106.289 65.5604 107.411 62.4519C107.518 62.1522 107.043 62.0228 106.935 62.3204C105.814 65.4289 104.693 68.538 103.573 71.6464C103.722 71.6266 103.873 71.6076 104.023 71.5871L99.0478 64.4017C98.0832 63.009 97.1193 61.6163 96.1553 60.2237C96.002 60.0024 95.6966 59.7048 95.615 59.4439C95.7128 59.7557 95.5693 59.622 95.8 59.4142C96.04 59.1972 96.2236 58.8239 96.4122 58.5609C97.4408 57.1272 98.4701 55.6936 99.4981 54.2606C99.6845 54.0019 99.2575 53.7544 99.0731 54.0103Z" fill="#1E130F"/>
<path d="M111.062 62.5054C112.212 65.4053 113.362 68.3052 114.512 71.2058C114.591 71.4051 114.837 71.4504 114.962 71.2645C117.597 67.36 120.232 63.4556 122.866 59.5511C122.912 59.4826 122.912 59.3702 122.866 59.3016C121.736 57.5986 120.606 55.8955 119.476 54.1925C119.301 53.9288 118.875 54.1762 119.051 54.4421C120.08 55.9931 121.109 57.5441 122.138 59.0951C122.363 59.4338 122.329 59.6077 122.428 59.32C122.391 59.4281 122.271 59.5752 122.2 59.6593C121.701 60.2425 121.311 60.9763 120.882 61.6119C118.767 64.7464 116.652 67.881 114.537 71.0149C114.687 71.034 114.837 71.0538 114.987 71.0743C113.837 68.1737 112.687 65.2738 111.537 62.3732C111.421 62.0813 110.944 62.2092 111.062 62.5054Z" fill="#1E130F"/>
<path d="M111.644 66.9653C110.721 68.4718 109.797 69.9783 108.873 71.4855C108.706 71.7569 109.132 72.0058 109.298 71.735C110.222 70.2285 111.146 68.7213 112.069 67.2148C112.237 66.9427 111.81 66.6945 111.644 66.9653Z" fill="#1E130F"/>
<path d="M108.443 73.268C108.691 78.4471 108.939 83.6262 109.188 88.8059C109.203 89.1226 109.696 89.1248 109.68 88.8059C109.432 83.6262 109.184 78.4471 108.935 73.268C108.92 72.9513 108.428 72.9492 108.443 73.268Z" fill="#1E130F"/>
<path d="M90.5889 62.7691L109.893 101.405L128.931 63.1473L127.543 62.1512L109.972 97.5019L91.9799 62.0706" fill="#FAC605"/>
<path d="M161.855 89.3293C159.405 92.6696 156.956 96.0099 154.507 99.3495C154.318 99.6062 154.745 99.8536 154.932 99.5991C157.381 96.2595 159.83 92.9192 162.279 89.5796C162.468 89.3223 162.041 89.0755 161.855 89.3293Z" fill="#1E130F"/>
<path d="M160.283 93.1966C158.008 96.7709 155.734 100.346 153.46 103.92C153.289 104.19 153.714 104.438 153.885 104.17C156.159 100.595 158.433 97.0212 160.708 93.4469C160.88 93.1776 160.453 92.9287 160.283 93.1966Z" fill="#1E130F"/>
<path d="M130.671 88.8117C130.808 88.9453 130.778 89.1135 130.739 89.2669C130.586 89.8678 130.421 90.4652 130.262 91.0647C130.255 91.0866 130.247 91.1085 130.236 91.1411C129.867 90.6914 129.403 90.4051 128.833 90.2729C128.94 90.1725 129.039 90.0764 129.141 89.9838C129.221 89.9103 129.307 89.8431 129.387 89.7703C129.664 89.5179 129.935 89.2599 130.217 89.0124C130.309 88.9318 130.424 88.8781 130.528 88.8117H130.671Z" fill="#FAC605"/>
<path d="M137.629 92.3506C137.6 92.3549 137.571 92.3591 137.543 92.3647C137.308 92.4149 137.197 92.7203 137.312 92.9621C137.405 93.1558 137.629 93.2364 137.822 93.1077C137.925 93.0392 137.962 92.9388 137.984 92.8306C138.026 92.6207 137.874 92.3478 137.629 92.3506ZM138.399 92.8921C138.352 93.0024 138.318 93.1212 138.255 93.2216C138.126 93.4273 137.923 93.5192 137.687 93.5347C137.479 93.5482 137.292 93.4987 137.123 93.3622C136.986 93.2498 136.91 93.1042 136.872 92.9423C136.821 92.7175 136.855 92.4984 136.993 92.3061C137.116 92.1307 137.284 92.0282 137.5 91.9957C137.737 91.959 137.944 92.0162 138.131 92.159C138.268 92.2651 138.343 92.4114 138.381 92.579C138.384 92.5945 138.393 92.6086 138.399 92.6235V92.8921Z" fill="white"/>
<path d="M127.464 88.8122C127.636 88.9126 127.722 89.0836 127.821 89.2448C128.001 89.541 128.181 89.8372 128.359 90.1335C128.376 90.1603 128.387 90.19 128.403 90.2225C127.916 90.2282 127.47 90.3533 127.045 90.6219C127.062 90.4431 127.075 90.2833 127.088 90.1228C127.096 90.0345 127.102 89.9461 127.108 89.8584C127.121 89.6584 127.127 89.4576 127.146 89.2583C127.158 89.1324 127.164 89.0009 127.249 88.8935C127.271 88.8652 127.297 88.839 127.322 88.8122H127.464Z" fill="#FAC605"/>
<path d="M124.864 93.2849C124.97 93.1067 125.158 93.0261 125.317 92.9123C125.508 92.7752 125.702 92.6423 125.896 92.5087C125.915 92.4959 125.937 92.4896 125.97 92.474C125.946 92.9335 126.045 93.3563 126.255 93.7734C126.157 93.7571 126.074 93.7472 125.991 93.7303C125.682 93.6666 125.372 93.6051 125.065 93.5316C124.993 93.5139 124.931 93.4517 124.864 93.41V93.2849Z" fill="#FAC605"/>
<path d="M128.907 95.684C128.737 95.4782 128.567 95.2725 128.393 95.0618C128.701 94.9968 128.989 94.936 129.28 94.8752C129.27 94.9332 129.257 95.0124 129.244 95.0922C129.225 95.2131 129.217 95.3376 129.185 95.4556C129.163 95.5362 129.107 95.6083 129.067 95.684H128.907Z" fill="#FAC605"/>
<path d="M127.201 92.175C127.467 91.866 127.9 91.9657 128.063 92.2032C128.144 92.1481 128.219 92.0774 128.308 92.0406C128.573 91.9296 128.916 91.9544 129.081 92.2414C129.13 92.3262 129.162 92.4316 129.169 92.5291C129.185 92.7865 129.185 93.0452 129.189 93.3039C129.192 93.4538 129.163 93.4793 129.018 93.4821C128.744 93.4856 128.759 93.4665 128.763 93.2297C128.765 93.0509 128.767 92.872 128.762 92.6931C128.759 92.5942 128.74 92.4952 128.656 92.4259C128.566 92.3503 128.459 92.3517 128.359 92.3906C128.24 92.4372 128.196 92.5447 128.193 92.6656C128.189 92.889 128.193 93.1124 128.192 93.3365C128.192 93.4446 128.157 93.48 128.051 93.4814C127.767 93.4849 127.761 93.4969 127.766 93.1951C127.768 93.019 127.773 92.843 127.764 92.6677C127.75 92.4167 127.601 92.3213 127.372 92.3913C127.268 92.4231 127.198 92.5291 127.196 92.6776C127.192 92.8953 127.195 93.1131 127.195 93.3308C127.194 93.4482 127.161 93.4807 127.042 93.4814C127.006 93.4814 126.971 93.4807 126.935 93.4814C126.798 93.4849 126.775 93.4637 126.771 93.316C126.763 92.9498 126.763 92.5829 126.771 92.216C126.775 92.0675 126.808 92.0187 126.952 92.0322C126.983 92.0357 127.016 92.0329 127.049 92.0329C127.165 92.0329 127.188 92.0534 127.201 92.175Z" fill="white"/>
<path d="M130.973 93.1841C131.014 93.1636 131.097 93.1402 131.153 93.0879C131.295 92.9522 131.315 92.7846 131.258 92.5966C131.209 92.4312 131.09 92.3577 130.94 92.3435C130.823 92.3329 130.719 92.3994 130.657 92.5019C130.566 92.6532 130.555 92.8158 130.63 92.9776C130.689 93.1049 130.793 93.1706 130.973 93.1841ZM130.584 93.3424C130.541 93.4824 130.541 93.4803 130.4 93.4831C130.171 93.4881 130.166 93.4803 130.167 93.2456C130.17 92.7097 130.168 92.1724 130.168 91.6359C130.168 91.5334 130.202 91.4987 130.304 91.4973C130.594 91.4931 130.582 91.4966 130.577 91.7667C130.575 91.901 130.578 92.0346 130.578 92.1689C130.578 92.1731 130.583 92.1781 130.587 92.1837C130.743 92.0056 130.941 91.9519 131.166 91.9992C131.394 92.0473 131.55 92.1837 131.633 92.4036C131.747 92.7055 131.733 92.9974 131.555 93.2689C131.339 93.5969 130.829 93.6337 130.584 93.3424Z" fill="white"/>
<path d="M132.995 92.7614C132.979 92.6942 132.973 92.6228 132.945 92.5599C132.861 92.3655 132.66 92.287 132.466 92.3952C132.306 92.4843 132.223 92.7911 132.353 93.006C132.453 93.1721 132.659 93.2294 132.818 93.1198C132.942 93.0343 132.988 92.9113 132.995 92.7614ZM132.993 93.3397C132.783 93.5906 132.429 93.5744 132.222 93.4577C132.02 93.3439 131.919 93.1544 131.882 92.9346C131.847 92.7246 131.869 92.514 131.975 92.3231C132.077 92.1393 132.228 92.0255 132.443 91.9951C132.659 91.9654 132.807 92.0064 132.974 92.1675C133.021 92.0332 133.021 92.0353 133.165 92.0325C133.411 92.0276 133.412 92.0318 133.41 92.275C133.407 92.6264 133.409 92.9784 133.409 93.3298C133.409 93.4613 133.388 93.4818 133.254 93.4818H133.156C133.037 93.4818 133.017 93.4648 132.993 93.3397Z" fill="white"/>
<path d="M134.106 92.1882C134.283 91.967 134.508 91.9408 134.743 92.02C134.95 92.0893 135.079 92.2575 135.095 92.4731C135.119 92.7771 135.115 93.0839 135.114 93.3893C135.114 93.4204 135.056 93.4685 135.018 93.4777C134.956 93.4925 134.888 93.4805 134.823 93.4826C134.74 93.484 134.708 93.4445 134.708 93.3639C134.71 93.1546 134.715 92.9461 134.706 92.7375C134.702 92.6541 134.673 92.5679 134.638 92.4901C134.575 92.3515 134.443 92.3586 134.325 92.377C134.217 92.3932 134.143 92.4731 134.122 92.5834C134.106 92.6753 134.105 92.7707 134.103 92.8648C134.1 93.0259 134.103 93.1864 134.103 93.3476C134.103 93.4536 134.073 93.4819 133.965 93.4819C133.906 93.4819 133.846 93.4848 133.787 93.4812C133.728 93.4777 133.692 93.4536 133.692 93.3822C133.695 92.9652 133.695 92.5481 133.692 92.1303C133.692 92.0574 133.732 92.0384 133.789 92.0341C133.843 92.0306 133.896 92.0334 133.949 92.0334C134.077 92.0334 134.098 92.0539 134.106 92.1882Z" fill="white"/>
<path d="M126.75 90.8636C126.384 91.1895 126.164 91.5854 126.032 92.0555C125.861 91.8392 125.706 91.6433 125.55 91.4475C125.411 91.2708 125.268 91.0969 125.133 90.9152C125.09 90.8565 125.063 90.7816 125.042 90.7095C125.013 90.602 125.109 90.5016 125.236 90.4945C125.409 90.4832 125.569 90.5391 125.732 90.5836C126.063 90.6755 126.395 90.766 126.75 90.8636Z" fill="#FAC605"/>
<path d="M136.141 93.5377C135.861 93.5229 135.616 93.4381 135.466 93.1751C135.373 93.0111 135.338 92.8379 135.365 92.6456C135.389 92.4816 135.449 92.3395 135.555 92.2207C135.662 92.1019 135.804 92.0312 135.963 91.9987C136.127 91.9662 136.291 91.9704 136.444 92.0362C136.532 92.0751 136.606 92.1458 136.687 92.203C136.695 92.2094 136.703 92.2221 136.704 92.232C136.719 92.3373 136.644 92.3939 136.58 92.4512C136.531 92.4957 136.477 92.4865 136.421 92.4455C136.278 92.338 136.127 92.3041 135.96 92.3967C135.863 92.4512 135.82 92.5438 135.789 92.6413C135.74 92.7983 135.806 93.0195 135.937 93.1107C136.062 93.197 136.215 93.2111 136.372 93.1107C136.516 93.0195 136.636 93.0485 136.699 93.2041C136.73 93.279 136.691 93.344 136.627 93.3879C136.481 93.4882 136.321 93.542 136.141 93.5377Z" fill="white"/>
<path d="M126.58 94.2306C126.853 94.5367 127.181 94.7523 127.579 94.8979C127.423 95.0026 127.281 95.098 127.139 95.1941C127.006 95.2839 126.874 95.373 126.744 95.4663C126.666 95.5222 126.579 95.5335 126.493 95.5179C126.415 95.5038 126.391 95.4288 126.396 95.3603C126.409 95.1998 126.426 95.0393 126.45 94.8803C126.481 94.6752 126.52 94.4723 126.557 94.2687C126.559 94.2581 126.568 94.2497 126.58 94.2306Z" fill="#FAC605"/>
<path d="M129.461 92.7489C129.461 92.558 129.46 92.3671 129.461 92.1762C129.461 92.0695 129.497 92.0349 129.604 92.0334C129.885 92.0299 129.891 92.02 129.888 92.3134C129.885 92.6506 129.887 92.9871 129.887 93.3243C129.887 93.453 129.858 93.4827 129.735 93.4827H129.592C129.497 93.482 129.461 93.4466 129.461 93.3483C129.46 93.1483 129.461 92.9489 129.461 92.7489Z" fill="white"/>
<path d="M129.943 94.4479C130.107 94.2479 130.263 94.057 130.427 93.8591C130.542 94.0125 130.692 94.1524 130.719 94.3652C130.734 94.4981 130.682 94.5582 130.529 94.5702C130.434 94.5773 130.337 94.5568 130.244 94.5363C130.14 94.5137 130.039 94.4769 129.943 94.4479Z" fill="#FAC605"/>
<path d="M129.668 91.4248C129.867 91.4248 129.971 91.5959 129.876 91.7719C129.861 91.7981 129.83 91.8299 129.805 91.832C129.713 91.8391 129.619 91.8476 129.53 91.8313C129.449 91.8158 129.409 91.6701 129.441 91.5542C129.469 91.4559 129.524 91.4248 129.668 91.4248Z" fill="white"/>
<path d="M70.9648 69.971L76.9918 107.853L77.8973 107.766L72.5936 69.532L70.9648 69.971Z" fill="#FAC605"/>
<path d="M99.3771 13.9166C103.346 16.8808 105.926 22.624 111.521 22.6679C113.75 22.6855 116.406 22.0436 118.192 20.6517C120.023 19.225 120.696 16.8964 121.28 14.748C121.364 14.4405 120.889 14.3097 120.805 14.6165C120.174 16.9374 119.443 19.3763 117.262 20.6898C115.204 21.9291 112.206 22.5427 109.864 21.9779C105.39 20.8977 103.107 16.0898 99.6254 13.4896C99.3707 13.2995 99.1252 13.7286 99.3771 13.9166Z" fill="black"/>
<path d="M123.946 30.023C122.431 30.2266 121.251 31.4149 120.696 32.7864C120.576 33.0819 121.053 33.2099 121.171 32.9179C121.522 32.0498 122.116 31.3259 122.944 30.8812C123.173 30.7582 123.415 30.6578 123.666 30.5864C123.728 30.5687 124.046 30.5044 123.946 30.5178C124.255 30.4761 124.26 29.9806 123.946 30.023Z" fill="#1E130F"/>
<path d="M123.575 32.7634C123.461 31.8422 122.829 31.0957 121.846 31.2781C121.535 31.336 121.666 31.8132 121.976 31.7553C122.401 31.6768 122.72 31.8613 122.913 32.2388C122.973 32.359 123.016 32.4855 123.049 32.6163C123.06 32.658 123.095 32.8659 123.083 32.7634C123.121 33.0751 123.614 33.0794 123.575 32.7634Z" fill="#1E130F"/>
<path d="M94.6664 29.8481C94.5637 29.8339 94.8599 29.8933 94.9162 29.9089C95.1779 29.9803 95.4291 30.0835 95.6683 30.2122C96.4964 30.6568 97.0902 31.38 97.442 32.2489C97.5595 32.5401 98.0366 32.4122 97.9169 32.1174C97.3618 30.7452 96.1812 29.5568 94.6664 29.3532C94.3533 29.3115 94.3561 29.8064 94.6664 29.8481Z" fill="#1E130F"/>
<path d="M95.5298 32.0933C95.5179 32.1894 95.5481 32.007 95.5587 31.9646C95.5917 31.8282 95.6361 31.6945 95.7001 31.5687C95.8922 31.1905 96.2109 31.0067 96.6359 31.0852C96.9461 31.1424 97.0784 30.6659 96.7667 30.608C95.7824 30.4256 95.1513 31.1721 95.0373 32.0933C94.9986 32.4086 95.4911 32.4057 95.5298 32.0933Z" fill="#1E130F"/>
<path d="M67.4472 105.423C65.4346 101.803 63.4221 98.1823 61.4102 94.5624C61.2557 94.284 60.8526 94.5687 61.006 94.8444C63.0179 98.4643 65.0304 102.084 67.0423 105.704C67.1974 105.983 67.5999 105.698 67.4472 105.423Z" fill="#1E130F"/>
<path d="M64.5907 102.376C62.2927 98.8169 59.994 95.2573 57.6957 91.6986C57.5223 91.4308 57.1191 91.714 57.2915 91.9805C59.5895 95.5399 61.8878 99.0986 64.1858 102.658C64.3589 102.926 64.7631 102.643 64.5907 102.376Z" fill="#1E130F"/>
</g>
</svg>
