<svg width="20" height="21" viewBox="0 0 20 21" fill="none" xmlns="http://www.w3.org/2000/svg">
<path d="M10.0004 13.8333C9.80568 13.8337 9.61699 13.7659 9.46706 13.6417L4.46706 9.47501C4.29688 9.33356 4.18986 9.1303 4.16954 8.90994C4.14923 8.68959 4.21728 8.47019 4.35873 8.30001C4.50017 8.12983 4.70343 8.02281 4.92379 8.00249C5.14414 7.98217 5.36355 8.05022 5.53373 8.19167L10.0004 11.925L14.4671 8.32501C14.5523 8.25578 14.6504 8.20409 14.7557 8.1729C14.8609 8.14171 14.9714 8.13163 15.0805 8.14324C15.1897 8.15486 15.2956 8.18794 15.3919 8.24058C15.4883 8.29323 15.5733 8.3644 15.6421 8.45001C15.7184 8.53569 15.7762 8.63621 15.8118 8.74527C15.8475 8.85434 15.8602 8.96959 15.8493 9.08381C15.8383 9.19802 15.8039 9.30875 15.7482 9.40905C15.6925 9.50935 15.6166 9.59705 15.5254 9.66667L10.5254 13.6917C10.3712 13.7963 10.1863 13.8461 10.0004 13.8333Z" fill="#CCD1D9"/>
</svg>
