<svg width="52" height="34" viewBox="0 0 52 34" fill="none" xmlns="http://www.w3.org/2000/svg">
<path d="M51.5184 10.171C51.4394 9.78386 51.0843 9.46445 50.6996 9.46445H47.0301V5.65092C47.0301 5.28312 46.7342 4.89596 46.2607 4.89596H42.9069V1.66317C42.9069 1.29536 42.611 0.908203 42.1375 0.908203H1.349C0.895244 0.908203 0.57959 1.21793 0.57959 1.66317V23.8281C0.57959 24.1959 0.875516 24.5831 1.349 24.5831H4.70283V27.8739C4.70283 28.2901 5.04808 28.6289 5.47224 28.6289H9.14172V32.3844C9.14172 32.8005 9.48697 33.1393 9.91113 33.1393H50.7489C51.1731 33.1393 51.5184 32.8005 51.5184 32.3844V10.171ZM5.41305 4.89596C5.01848 4.89596 4.64364 5.26376 4.64364 5.65092V23.0635H2.06909V2.36973H41.4174V4.90564H5.41305V4.89596ZM9.80262 9.46445C9.39819 9.46445 9.08254 9.77418 9.08254 10.171V27.0609H6.18246V6.41556H45.5308V9.47413H9.80262V9.46445ZM49.9302 31.6294H10.572V10.926H49.9204V31.6294H49.9302Z" fill="#141518"/>
<path d="M46.3106 16.2398C45.2749 16.2398 44.4561 15.4365 44.4561 14.4202C44.4561 14.004 44.1109 13.6652 43.6867 13.6652H16.7673C16.2938 13.6652 15.9979 14.062 15.9979 14.4202C15.9979 15.5623 15.3074 16.2398 14.1434 16.2398C13.6699 16.2398 13.374 16.6367 13.374 16.9948V25.5026C13.374 25.9188 13.7193 26.2576 14.1434 26.2576C15.3074 26.2576 15.9979 26.9351 15.9979 28.0773C15.9979 28.5418 16.4023 28.8322 16.7673 28.8322H43.7459C44.1306 28.8322 44.466 28.4741 44.466 28.0773C44.466 27.061 45.2847 26.2576 46.3205 26.2576C46.7446 26.2576 47.0899 25.9188 47.0899 25.5026V16.9948C47.0899 16.5302 46.6854 16.2398 46.3205 16.2398H46.3106ZM45.5905 24.9025L45.413 24.9509C44.318 25.2413 43.4204 26.1221 43.1245 27.1965L43.0751 27.3707H17.4874L17.4381 27.1868C17.1323 26.0059 16.284 25.1929 15.1101 24.9509L14.9128 24.9122V17.7497L15.1003 17.7014C16.3037 17.4013 17.1323 16.5883 17.4381 15.4074L17.4874 15.2235H43.0751L43.1245 15.3978C43.4204 16.4721 44.318 17.3529 45.413 17.6433L45.5905 17.6917V24.8929V24.9025Z" fill="#141518"/>
<path d="M40.2641 20.4989H38.5477C38.0742 20.4989 37.7783 20.8957 37.7783 21.2538C37.7783 21.67 38.1236 22.0088 38.5477 22.0088H40.2641C40.6685 22.0088 40.9941 21.6797 41.0335 21.2345C41.0335 20.7892 40.6291 20.4989 40.2641 20.4989Z" fill="#009330"/>
<path d="M22.0146 20.4989H20.2982C19.8247 20.4989 19.5288 20.8957 19.5288 21.2538C19.5288 21.67 19.8741 22.0088 20.2982 22.0088H22.0146C22.419 22.0088 22.7445 21.6797 22.784 21.2345C22.784 20.7892 22.3796 20.4989 22.0146 20.4989Z" fill="#009330"/>
<path d="M30.2518 16.4531C28.9695 16.4531 27.7463 16.9661 26.898 17.8469C26.0398 18.7374 25.5762 19.8892 25.5762 21.0991C25.5762 22.3089 26.0497 23.5091 26.898 24.3415C27.8351 25.261 28.9892 25.745 30.2518 25.745C31.5144 25.745 32.6784 25.261 33.6056 24.3415C34.454 23.4607 34.9274 22.3089 34.9274 21.0991C34.9274 19.8892 34.454 18.689 33.6056 17.8566C32.6685 16.9371 31.5144 16.4531 30.2518 16.4531ZM32.4614 23.422C31.8695 24.0028 31.0705 24.3318 30.2518 24.3318C29.3739 24.3318 28.5848 24.0028 28.0324 23.4123C27.4011 22.7929 27.0558 21.9895 27.0558 21.0991C27.0558 20.2086 27.4109 19.3859 28.0422 18.7761C28.6341 18.1953 29.4331 17.8663 30.2518 17.8663C31.0705 17.8663 31.8498 18.1857 32.4515 18.718C33.0927 19.3471 33.4478 20.1892 33.4478 21.0991C33.4478 22.0089 33.0927 22.8122 32.4614 23.422Z" fill="#009330"/>
</svg>
