<svg width="56" height="56" viewBox="0 0 56 56" fill="none" xmlns="http://www.w3.org/2000/svg">
<path d="M35.8123 44.686C35.8123 43.7162 35.0289 42.9291 34.0636 42.9291C33.0984 42.9291 32.3149 43.7162 32.3149 44.686C32.3149 45.6558 33.0984 46.4429 34.0636 46.4429C35.0289 46.4429 35.8123 45.6558 35.8123 44.686Z" fill="#009330"/>
<path d="M30.2451 40.8348C30.2451 41.2237 30.5575 41.5376 30.9446 41.5376H45.1159C45.503 41.5376 45.8154 41.2237 45.8154 40.8348C45.8154 40.446 45.503 40.1321 45.1159 40.1321H30.9446C30.5575 40.1321 30.2451 40.446 30.2451 40.8348Z" fill="#141518"/>
<path d="M45.817 7.51444C45.817 7.12558 45.5046 6.81168 45.1175 6.81168H23.0095C22.6225 6.81168 22.3101 7.12558 22.3101 7.51444C22.3101 7.90331 22.6225 8.21721 23.0095 8.21721H45.1175C45.5046 8.21721 45.817 7.90331 45.817 7.51444Z" fill="#141518"/>
<path d="M44.9301 1.99991H23.1998C21.1807 1.99991 19.5392 3.64907 19.5392 5.67772V23.5936L18.6999 24.0621C13.7569 26.8263 9.73727 34.3225 8.45957 39.9727C7.47098 44.358 7 47.0987 7 53.2971C7 53.686 7.31243 53.9999 7.69947 53.9999C8.08652 53.9999 8.39895 53.686 8.39895 53.2971C8.39895 47.244 8.85594 44.5641 9.82121 40.2866C11.0336 34.9362 14.7921 27.8617 19.3807 25.2943L19.5392 25.2052V36.0278C19.5392 36.0278 19.5392 36.0466 19.5392 36.0606C19.5392 36.9321 20.0289 37.7145 20.8076 38.108C21.5817 38.4969 22.491 38.4219 23.1858 37.9066C26.2682 35.6249 28.0728 33.2402 29.3878 31.4973L29.5837 31.2397C29.8588 30.8742 30.2598 30.64 30.7121 30.5884C31.1505 30.5416 31.5795 30.6634 31.9199 30.9398C31.9479 30.9632 31.9712 30.9867 31.9945 31.0007C32.7686 31.6847 32.9225 32.2329 31.8686 33.8446C31.4116 34.5427 30.8847 35.2782 30.3717 35.9904C29.7935 36.7962 29.2432 37.5599 28.8189 38.2345C28.0775 39.4011 27.42 40.7223 26.7531 42.3996C25.0744 46.5974 22.4211 48.4153 20.4905 49.2024C18.8444 49.877 17.7766 51.484 17.7766 53.3018C17.7766 53.6907 18.089 53.9999 18.476 53.9999C18.8631 53.9999 19.1755 53.6813 19.1755 53.2925C19.1755 52.0556 19.8983 50.9593 21.0174 50.5001C23.1998 49.6146 26.1889 47.5766 28.0541 42.9196C28.6883 41.3267 29.3085 40.0805 30.0033 38.9841C30.409 38.3423 30.9453 37.5974 31.5095 36.8056C32.0318 36.0794 32.5681 35.3298 33.0391 34.6083C34.023 33.1043 34.6898 31.4973 32.9225 29.9372C32.9132 29.9278 32.8852 29.9091 32.8758 29.8997C32.8619 29.8857 32.8479 29.8716 32.8339 29.8622C32.1904 29.3281 31.3836 29.0892 30.5583 29.1829C29.7236 29.2813 28.9821 29.7076 28.4785 30.3823L28.2826 30.64C27.0189 32.3125 25.2842 34.6036 22.3604 36.7681C22.09 36.9695 21.7449 36.9977 21.4418 36.843C21.134 36.6884 20.9475 36.3886 20.9475 36.0513V36.0278C20.9475 36.0278 20.9475 36.0278 20.9475 36.0232V5.67772C20.9475 4.42211 21.9641 3.40544 23.2091 3.40544H44.9394C46.1892 3.40544 47.2011 4.42679 47.2011 5.67772V45.4777C47.2011 46.7333 46.1845 47.75 44.9394 47.75H26.6645C26.2775 47.75 25.9651 48.0639 25.9651 48.4527C25.9651 48.8416 26.2775 49.1555 26.6645 49.1555H44.9394C46.9586 49.1555 48.6 47.5064 48.6 45.4777V5.67772C48.6 3.64907 46.9586 1.99991 44.9394 1.99991H44.9301Z" fill="#141518"/>
<path d="M36.8071 5.83696C37.1941 5.83696 37.5066 5.52306 37.5066 5.13419C37.5066 4.74533 37.1941 4.43143 36.8071 4.43143H31.3279C30.9408 4.43143 30.6284 4.74533 30.6284 5.13419C30.6284 5.52306 30.9408 5.83696 31.3279 5.83696H36.8071Z" fill="#141518"/>
<path d="M43.6803 21.0915H35.655C35.268 21.0915 34.9556 21.4054 34.9556 21.7943C34.9556 22.1831 35.268 22.497 35.655 22.497H43.6803C44.0674 22.497 44.3798 22.1831 44.3798 21.7943C44.3798 21.4054 44.0674 21.0915 43.6803 21.0915Z" fill="#009330"/>
<path d="M43.6803 15.3008H35.655C35.268 15.3008 34.9556 15.6147 34.9556 16.0035C34.9556 16.3924 35.268 16.7063 35.655 16.7063H43.6803C44.0674 16.7063 44.3798 16.3924 44.3798 16.0035C44.3798 15.6147 44.0674 15.3008 43.6803 15.3008Z" fill="#009330"/>
<path d="M25.9882 14.8559C26.8229 14.8559 27.4991 15.5352 27.4991 16.3739C27.4991 16.7627 27.8115 17.0766 28.1985 17.0766C28.5856 17.0766 28.898 16.7627 28.898 16.3739C28.898 14.7622 27.5923 13.4504 25.9882 13.4504C24.3841 13.4504 23.0784 14.7622 23.0784 16.3739C23.0784 18.3791 25.1022 19.0444 25.769 19.2599C27.2053 19.7331 27.4944 20.2016 27.4944 20.8107C27.4944 21.6493 26.8182 22.3286 25.9835 22.3286C25.1488 22.3286 24.4727 21.6493 24.4727 20.8107C24.4727 20.4218 24.1602 20.1079 23.7732 20.1079C23.3862 20.1079 23.0737 20.4218 23.0737 20.8107C23.0737 22.4223 24.3794 23.7342 25.9835 23.7342C27.5877 23.7342 28.8933 22.4223 28.8933 20.8107C28.8933 18.8054 27.0048 18.187 26.2027 17.9246C24.6732 17.4233 24.4773 16.833 24.4773 16.3739C24.4773 15.5352 25.1535 14.8559 25.9882 14.8559Z" fill="#009330"/>
<path d="M29.6835 24.3481C29.7627 24.3762 29.842 24.3902 29.9166 24.3902C30.2057 24.3902 30.4715 24.2122 30.5741 23.9217L34.1881 13.7363C34.3186 13.3708 34.1275 12.9679 33.7637 12.8367C33.4 12.7056 32.999 12.8977 32.8684 13.2631L29.2545 23.4485C29.1239 23.814 29.3151 24.2169 29.6788 24.3481H29.6835Z" fill="#009330"/>
</svg>
